<svg xmlns="http://www.w3.org/2000/svg" xmlns:svg="http://www.w3.org/2000/svg" xmlns:xlink="http://www.w3.org/1999/xlink" id="svg11300" width="281" height="281" version="1.0" style="display:inline;enable-background:new"><title id="title4872">Firewall</title><defs id="defs3"><linearGradient id="linearGradient3227" x1="39.869" x2="39.869" y1="499.075" y2="447.081" gradientUnits="userSpaceOnUse" xlink:href="#linearGradient5592-5"/><linearGradient id="linearGradient5592-5"><stop style="stop-color:#000;stop-opacity:1" id="stop5594-1" offset="0"/><stop style="stop-color:#000;stop-opacity:0" id="stop5596-8" offset="1"/></linearGradient><filter id="filter5692" width="1.253" height="1.247" x="-.127" y="-.123" style="color-interpolation-filters:sRGB"><feGaussianBlur id="feGaussianBlur5694" stdDeviation="23.232"/></filter><linearGradient id="linearGradient3229" x1="39.869" x2="37.869" y1="503.496" y2="186.073" gradientUnits="userSpaceOnUse" xlink:href="#linearGradient5592"/><linearGradient id="linearGradient5592"><stop style="stop-color:#000;stop-opacity:1" id="stop5594" offset="0"/><stop style="stop-color:#000;stop-opacity:0" id="stop5596" offset="1"/></linearGradient><filter id="filter16317" width="1.339" height="1.33" x="-.169" y="-.165" style="color-interpolation-filters:sRGB"><feGaussianBlur id="feGaussianBlur16319" stdDeviation="31.054"/></filter><clipPath id="clipPath4123" clipPathUnits="userSpaceOnUse"><path style="display:inline;fill:none;stroke:#000;stroke-width:2;stroke-miterlimit:4;stroke-dasharray:none;enable-background:new" id="path4125" d="m 229.00001,528 c 0,0 -175.528626,-366.71501 -224.2343464,-366.6728 -48.7057196,0.0422 -125.3637236,178.14259 -150.9245736,266.37026 -25.56083,88.22768 27.66165,37.95068 267.66713,-47.8494 -43.257256,34.33899 -332.8723,214.94732 -332.50787,120.18647 C -210.63523,405.2737 -72.888996,76 4.7656636,76 82.420324,76 213.23453,408.98418 229.00001,528 Z"/></clipPath><radialGradient id="radialGradient3231" cx="117.735" cy="-18.209" r="220" fx="117.735" fy="-18.209" gradientTransform="matrix(3.4951618,-2.2092102e-6,0,0.45789975,-592.50138,418.74488)" gradientUnits="userSpaceOnUse" xlink:href="#linearGradient4737"/><linearGradient id="linearGradient4737"><stop style="stop-color:#719ecf;stop-opacity:1" id="stop4739" offset="0"/><stop style="stop-color:#6294ca;stop-opacity:1" id="stop4741" offset="1"/></linearGradient><radialGradient id="radialGradient3233" cx="95.142" cy="357.78" r="149.263" fx="95.142" fy="357.78" gradientTransform="matrix(-1.489228,0.85980615,-0.3355391,-0.58117081,217.48754,591.99819)" gradientUnits="userSpaceOnUse" xlink:href="#linearGradient5534"/><linearGradient id="linearGradient5534"><stop style="stop-color:#204a87;stop-opacity:1" id="stop5536" offset="0"/><stop style="stop-color:#204a87;stop-opacity:0" id="stop5538" offset="1"/></linearGradient><filter id="filter5530" style="color-interpolation-filters:sRGB"><feGaussianBlur id="feGaussianBlur5532" stdDeviation="3.521"/></filter><linearGradient id="linearGradient3235" x1="174.958" x2="174.958" y1="291.142" y2="176.684" gradientUnits="userSpaceOnUse" xlink:href="#linearGradient5759"/><linearGradient id="linearGradient5759"><stop style="stop-color:#fff;stop-opacity:1" id="stop5761" offset="0"/><stop style="stop-color:#fff;stop-opacity:0" id="stop5763" offset="1"/></linearGradient><filter id="filter4976" style="color-interpolation-filters:sRGB"><feGaussianBlur id="feGaussianBlur4978" stdDeviation="1.951"/></filter><linearGradient id="linearGradient3237" x1="200.097" x2="209.772" y1="469.546" y2="463.231" gradientUnits="userSpaceOnUse" xlink:href="#linearGradient5932"/><linearGradient id="linearGradient5932"><stop style="stop-color:#fff;stop-opacity:1" id="stop5934" offset="0"/><stop style="stop-color:#fff;stop-opacity:0" id="stop5936" offset="1"/></linearGradient><filter id="filter5964" style="color-interpolation-filters:sRGB"><feGaussianBlur id="feGaussianBlur5966" stdDeviation="1.29"/></filter><filter id="filter5716" style="color-interpolation-filters:sRGB"><feGaussianBlur id="feGaussianBlur5718" stdDeviation="3.063"/></filter><filter id="filter4590" style="color-interpolation-filters:sRGB"><feGaussianBlur id="feGaussianBlur4592" stdDeviation="5.265"/></filter><linearGradient id="linearGradient3239" x1="11.971" x2="-66.418" y1="400.049" y2="533.857" gradientUnits="userSpaceOnUse" xlink:href="#linearGradient4924"/><linearGradient id="linearGradient4924"><stop style="stop-color:#204a87;stop-opacity:1" id="stop4926" offset="0"/><stop style="stop-color:#204a87;stop-opacity:0" id="stop4928" offset="1"/></linearGradient><filter id="filter6051" style="color-interpolation-filters:sRGB"><feGaussianBlur id="feGaussianBlur6053" stdDeviation="7.179"/></filter><radialGradient id="radialGradient3241" cx="444.536" cy="277.982" r="115.647" fx="444.536" fy="277.982" gradientTransform="matrix(0.8660254,0.50000001,-1.0564906,1.8298954,-210.73197,-465.61759)" gradientUnits="userSpaceOnUse" xlink:href="#linearGradient5139"/><linearGradient id="linearGradient5139"><stop style="stop-color:#fff;stop-opacity:1" id="stop5141" offset="0"/><stop style="stop-color:#fff;stop-opacity:0" id="stop5143" offset="1"/></linearGradient><filter id="filter5151" style="color-interpolation-filters:sRGB"><feGaussianBlur id="feGaussianBlur5153" stdDeviation="1.631"/></filter><radialGradient id="radialGradient3243" cx="528.385" cy="407.899" r="121.915" fx="528.385" fy="407.899" gradientTransform="matrix(-1.3538717,0.63959571,-0.15281319,-0.32346912,1332.3144,215.63611)" gradientUnits="userSpaceOnUse" xlink:href="#linearGradient5206"/><linearGradient id="linearGradient5206"><stop style="stop-color:#fff;stop-opacity:1" id="stop5208" offset="0"/><stop style="stop-color:#fff;stop-opacity:0" id="stop5210" offset="1"/></linearGradient><filter id="filter5234" style="color-interpolation-filters:sRGB"><feGaussianBlur id="feGaussianBlur5236" stdDeviation=".828"/></filter><radialGradient id="radialGradient3245" cx="54.927" cy="521.644" r="145.495" fx="54.927" fy="521.644" gradientTransform="matrix(-0.39051466,0.05291286,-0.06474758,-0.47785884,-104.07483,747.03433)" gradientUnits="userSpaceOnUse" xlink:href="#linearGradient5262-1"/><linearGradient id="linearGradient5262-1"><stop style="stop-color:#fff;stop-opacity:1" id="stop5264-6" offset="0"/><stop style="stop-color:#fff;stop-opacity:0" id="stop5266-2" offset="1"/></linearGradient><filter id="filter5498" style="color-interpolation-filters:sRGB"><feGaussianBlur id="feGaussianBlur5500" stdDeviation=".493"/></filter><radialGradient id="radialGradient3247" cx="650.625" cy="304.811" r="107.656" fx="650.625" fy="304.811" gradientTransform="matrix(1,0,0,1.4995646,0,-155.27093)" gradientUnits="userSpaceOnUse" xlink:href="#linearGradient6023"/><linearGradient id="linearGradient6023"><stop style="stop-color:#fff;stop-opacity:1" id="stop6025" offset="0"/><stop style="stop-color:#fff;stop-opacity:0" id="stop6027" offset="1"/></linearGradient><filter id="filter6031" style="color-interpolation-filters:sRGB"><feGaussianBlur id="feGaussianBlur6033" stdDeviation="1.345"/></filter><clipPath id="clipPath4123-7-9" clipPathUnits="userSpaceOnUse"><path style="display:inline;fill:none;stroke:#000;stroke-width:2;stroke-miterlimit:4;stroke-dasharray:none;enable-background:new" id="path4125-8-3" d="m 229.00001,528 c 0,0 -175.528626,-366.71501 -224.2343464,-366.6728 -48.7057196,0.0422 -125.3637236,178.14259 -150.9245736,266.37026 -25.56083,88.22768 27.66165,37.95068 267.66713,-47.8494 -43.257256,34.33899 -332.8723,214.94732 -332.50787,120.18647 C -210.63523,405.2737 -72.888996,76 4.7656636,76 82.420324,76 213.23453,408.98418 229.00001,528 Z"/></clipPath><linearGradient id="linearGradient6575"><stop style="stop-color:#000;stop-opacity:1" id="stop6577" offset="0"/><stop id="stop6583" offset=".141" style="stop-color:#000;stop-opacity:.13611111"/><stop style="stop-color:#000;stop-opacity:0" id="stop6579" offset="1"/></linearGradient><clipPath id="clipPath4123-7-9-5" clipPathUnits="userSpaceOnUse"><path style="display:inline;fill:none;stroke:#000;stroke-width:2;stroke-miterlimit:4;stroke-dasharray:none;enable-background:new" id="path4125-8-3-0" d="m 229.00001,528 c 0,0 -175.528626,-366.71501 -224.2343464,-366.6728 -48.7057196,0.0422 -125.3637236,178.14259 -150.9245736,266.37026 -25.56083,88.22768 27.66165,37.95068 267.66713,-47.8494 -43.257256,34.33899 -332.8723,214.94732 -332.50787,120.18647 C -210.63523,405.2737 -72.888996,76 4.7656636,76 82.420324,76 213.23453,408.98418 229.00001,528 Z"/></clipPath><radialGradient id="radialGradient3952-5" cx="117.735" cy="-18.209" r="220" fx="117.735" fy="-18.209" gradientTransform="matrix(3.4951618,-2.2092102e-6,0,0.45789975,-592.50138,418.74488)" gradientUnits="userSpaceOnUse" xlink:href="#linearGradient4737-9-9-2-4"/><linearGradient id="linearGradient4737-9-9-2-4"><stop style="stop-color:#719ecf;stop-opacity:1" id="stop4739-7-4-5-44" offset="0"/><stop style="stop-color:#6294ca;stop-opacity:1" id="stop4741-69-3-6-3" offset="1"/></linearGradient><radialGradient id="radialGradient3954-2" cx="95.142" cy="357.78" r="149.263" fx="95.142" fy="357.78" gradientTransform="matrix(-1.489228,0.85980615,-0.3355391,-0.58117081,217.48754,591.99819)" gradientUnits="userSpaceOnUse" xlink:href="#linearGradient5534-6-5-5-7"/><linearGradient id="linearGradient5534-6-5-5-7"><stop style="stop-color:#204a87;stop-opacity:1" id="stop5536-5-1-8-6" offset="0"/><stop style="stop-color:#204a87;stop-opacity:0" id="stop5538-6-6-3-9" offset="1"/></linearGradient><linearGradient id="linearGradient3956-3" x1="174.958" x2="174.958" y1="291.142" y2="176.684" gradientUnits="userSpaceOnUse" xlink:href="#linearGradient5759-1-3-5-3"/><linearGradient id="linearGradient5759-1-3-5-3"><stop style="stop-color:#fff;stop-opacity:1" id="stop5761-6-4-0-0" offset="0"/><stop style="stop-color:#fff;stop-opacity:0" id="stop5763-9-3-2-1" offset="1"/></linearGradient><linearGradient id="linearGradient3958-5" x1="200.097" x2="209.772" y1="469.546" y2="463.231" gradientUnits="userSpaceOnUse" xlink:href="#linearGradient5932-7-5-4-4"/><linearGradient id="linearGradient5932-7-5-4-4"><stop style="stop-color:#fff;stop-opacity:1" id="stop5934-6-8-4-3" offset="0"/><stop style="stop-color:#fff;stop-opacity:0" id="stop5936-7-0-2-9" offset="1"/></linearGradient><linearGradient id="linearGradient3960-0" x1="11.971" x2="-66.418" y1="400.049" y2="533.857" gradientUnits="userSpaceOnUse" xlink:href="#linearGradient4924-6-4-7-1"/><linearGradient id="linearGradient4924-6-4-7-1"><stop style="stop-color:#204a87;stop-opacity:1" id="stop4926-4-5-9-8" offset="0"/><stop style="stop-color:#204a87;stop-opacity:0" id="stop4928-6-0-6-5" offset="1"/></linearGradient><radialGradient id="radialGradient3962-1" cx="444.536" cy="277.982" r="115.647" fx="444.536" fy="277.982" gradientTransform="matrix(0.8660254,0.50000001,-1.0564906,1.8298954,-210.73197,-465.61759)" gradientUnits="userSpaceOnUse" xlink:href="#linearGradient5139-9-2-8-5"/><linearGradient id="linearGradient5139-9-2-8-5"><stop style="stop-color:#fff;stop-opacity:1" id="stop5141-5-9-8-3" offset="0"/><stop style="stop-color:#fff;stop-opacity:0" id="stop5143-0-7-4-5" offset="1"/></linearGradient><radialGradient id="radialGradient3964-4" cx="528.385" cy="407.899" r="121.915" fx="528.385" fy="407.899" gradientTransform="matrix(-1.3538717,0.63959571,-0.15281319,-0.32346912,1332.3144,215.63611)" gradientUnits="userSpaceOnUse" xlink:href="#linearGradient5206-0-4-6-7"/><linearGradient id="linearGradient5206-0-4-6-7"><stop style="stop-color:#fff;stop-opacity:1" id="stop5208-8-4-2-7" offset="0"/><stop style="stop-color:#fff;stop-opacity:0" id="stop5210-0-6-7-8" offset="1"/></linearGradient><radialGradient id="radialGradient3966-1" cx="54.927" cy="521.644" r="145.495" fx="54.927" fy="521.644" gradientTransform="matrix(-0.39051466,0.05291286,-0.06474758,-0.47785884,-104.07483,747.03433)" gradientUnits="userSpaceOnUse" xlink:href="#linearGradient5262-1-8-9-0-3"/><linearGradient id="linearGradient5262-1-8-9-0-3"><stop style="stop-color:#fff;stop-opacity:1" id="stop5264-6-8-9-7-4" offset="0"/><stop style="stop-color:#fff;stop-opacity:0" id="stop5266-2-9-8-2-6" offset="1"/></linearGradient><linearGradient id="linearGradient6023-5-8-5-0"><stop style="stop-color:#fff;stop-opacity:1" id="stop6025-0-7-6-8" offset="0"/><stop style="stop-color:#fff;stop-opacity:0" id="stop6027-1-2-8-4" offset="1"/></linearGradient><radialGradient id="radialGradient4983" cx="650.625" cy="304.811" r="107.656" fx="650.625" fy="304.811" gradientTransform="matrix(1,0,0,1.4995646,0,-155.27093)" gradientUnits="userSpaceOnUse" xlink:href="#linearGradient6023-5-8-5-0"/><radialGradient id="radialGradient3952-5-8" cx="117.735" cy="-18.209" r="220" fx="117.735" fy="-18.209" gradientTransform="matrix(3.4951618,-2.2092102e-6,0,0.45789975,-592.50138,418.74488)" gradientUnits="userSpaceOnUse" xlink:href="#linearGradient4737-9-9-2-4-1"/><linearGradient id="linearGradient4737-9-9-2-4-1"><stop style="stop-color:#719ecf;stop-opacity:1" id="stop4739-7-4-5-44-49" offset="0"/><stop style="stop-color:#6294ca;stop-opacity:1" id="stop4741-69-3-6-3-3" offset="1"/></linearGradient><radialGradient id="radialGradient3954-2-4" cx="95.142" cy="357.78" r="149.263" fx="95.142" fy="357.78" gradientTransform="matrix(-1.489228,0.85980615,-0.3355391,-0.58117081,217.48754,591.99819)" gradientUnits="userSpaceOnUse" xlink:href="#linearGradient5534-6-5-5-7-9"/><linearGradient id="linearGradient5534-6-5-5-7-9"><stop style="stop-color:#204a87;stop-opacity:1" id="stop5536-5-1-8-6-0" offset="0"/><stop style="stop-color:#204a87;stop-opacity:0" id="stop5538-6-6-3-9-7" offset="1"/></linearGradient><linearGradient id="linearGradient3956-3-1" x1="174.958" x2="174.958" y1="291.142" y2="176.684" gradientUnits="userSpaceOnUse" xlink:href="#linearGradient5759-1-3-5-3-2"/><linearGradient id="linearGradient5759-1-3-5-3-2"><stop style="stop-color:#fff;stop-opacity:1" id="stop5761-6-4-0-0-7" offset="0"/><stop style="stop-color:#fff;stop-opacity:0" id="stop5763-9-3-2-1-0" offset="1"/></linearGradient><linearGradient id="linearGradient3958-5-2" x1="200.097" x2="209.772" y1="469.546" y2="463.231" gradientUnits="userSpaceOnUse" xlink:href="#linearGradient5932-7-5-4-4-2"/><linearGradient id="linearGradient5932-7-5-4-4-2"><stop style="stop-color:#fff;stop-opacity:1" id="stop5934-6-8-4-3-5" offset="0"/><stop style="stop-color:#fff;stop-opacity:0" id="stop5936-7-0-2-9-1" offset="1"/></linearGradient><linearGradient id="linearGradient3960-0-5" x1="11.971" x2="-66.418" y1="400.049" y2="533.857" gradientUnits="userSpaceOnUse" xlink:href="#linearGradient4924-6-4-7-1-9"/><linearGradient id="linearGradient4924-6-4-7-1-9"><stop style="stop-color:#204a87;stop-opacity:1" id="stop4926-4-5-9-8-0" offset="0"/><stop style="stop-color:#204a87;stop-opacity:0" id="stop4928-6-0-6-5-1" offset="1"/></linearGradient><radialGradient id="radialGradient3962-1-1" cx="444.536" cy="277.982" r="115.647" fx="444.536" fy="277.982" gradientTransform="matrix(0.8660254,0.50000001,-1.0564906,1.8298954,-210.73197,-465.61759)" gradientUnits="userSpaceOnUse" xlink:href="#linearGradient5139-9-2-8-5-5"/><linearGradient id="linearGradient5139-9-2-8-5-5"><stop style="stop-color:#fff;stop-opacity:1" id="stop5141-5-9-8-3-3" offset="0"/><stop style="stop-color:#fff;stop-opacity:0" id="stop5143-0-7-4-5-0" offset="1"/></linearGradient><radialGradient id="radialGradient3964-4-9" cx="528.385" cy="407.899" r="121.915" fx="528.385" fy="407.899" gradientTransform="matrix(-1.3538717,0.63959571,-0.15281319,-0.32346912,1332.3144,215.63611)" gradientUnits="userSpaceOnUse" xlink:href="#linearGradient5206-0-4-6-7-9"/><linearGradient id="linearGradient5206-0-4-6-7-9"><stop style="stop-color:#fff;stop-opacity:1" id="stop5208-8-4-2-7-7" offset="0"/><stop style="stop-color:#fff;stop-opacity:0" id="stop5210-0-6-7-8-6" offset="1"/></linearGradient><radialGradient id="radialGradient3966-1-8" cx="54.927" cy="521.644" r="145.495" fx="54.927" fy="521.644" gradientTransform="matrix(-0.39051466,0.05291286,-0.06474758,-0.47785884,-104.07483,747.03433)" gradientUnits="userSpaceOnUse" xlink:href="#linearGradient5262-1-8-9-0-3-1"/><linearGradient id="linearGradient5262-1-8-9-0-3-1"><stop style="stop-color:#fff;stop-opacity:1" id="stop5264-6-8-9-7-4-0" offset="0"/><stop style="stop-color:#fff;stop-opacity:0" id="stop5266-2-9-8-2-6-8" offset="1"/></linearGradient><linearGradient id="linearGradient6023-5-8-5-0-8"><stop style="stop-color:#fff;stop-opacity:1" id="stop6025-0-7-6-8-6" offset="0"/><stop style="stop-color:#fff;stop-opacity:0" id="stop6027-1-2-8-4-7" offset="1"/></linearGradient><radialGradient id="radialGradient5319" cx="650.625" cy="304.811" r="107.656" fx="650.625" fy="304.811" gradientTransform="matrix(1,0,0,1.4995646,0,-155.27093)" gradientUnits="userSpaceOnUse" xlink:href="#linearGradient6023-5-8-5-0-8"/><linearGradient id="linearGradient4737-9-9-2-4-1-1-7"><stop style="stop-color:#719ecf;stop-opacity:1" id="stop4739-7-4-5-44-49-5-6" offset="0"/><stop style="stop-color:#6294ca;stop-opacity:1" id="stop4741-69-3-6-3-3-7-2" offset="1"/></linearGradient><radialGradient id="radialGradient5545" cx="117.735" cy="-18.209" r="220" fx="117.735" fy="-18.209" gradientTransform="matrix(0.11120965,-6.842684e-8,0,0.01418273,291.86133,232.61599)" gradientUnits="userSpaceOnUse" xlink:href="#linearGradient4737-9-9-2-4-1-1-7"/><linearGradient id="linearGradient4737-9-9-2-4-1-1-8"><stop style="stop-color:#719ecf;stop-opacity:1" id="stop4739-7-4-5-44-49-5-8" offset="0"/><stop style="stop-color:#6294ca;stop-opacity:1" id="stop4741-69-3-6-3-3-7-4" offset="1"/></linearGradient><radialGradient id="radialGradient5545-2" cx="117.735" cy="-18.209" r="220" fx="117.735" fy="-18.209" gradientTransform="matrix(0.11120965,-6.842684e-8,0,0.01418273,291.86133,233.61599)" gradientUnits="userSpaceOnUse" xlink:href="#linearGradient4737-9-9-2-4-1-1-8"/><linearGradient id="linearGradient4737-9-9-2-4-9-1"><stop style="stop-color:#719ecf;stop-opacity:1" id="stop4739-7-4-5-44-5-2" offset="0"/><stop style="stop-color:#6294ca;stop-opacity:1" id="stop4741-69-3-6-3-6-7" offset="1"/></linearGradient><radialGradient id="radialGradient5631" cx="117.735" cy="-18.209" r="220" fx="117.735" fy="-18.209" gradientTransform="matrix(0.14298385,-8.7977378e-8,0,0.01823494,289.39313,193.64913)" gradientUnits="userSpaceOnUse" xlink:href="#linearGradient4737-9-9-2-4-9-1"/><linearGradient id="linearGradient4737-9-9-2-4-9-8"><stop style="stop-color:#719ecf;stop-opacity:1" id="stop4739-7-4-5-44-5-4" offset="0"/><stop style="stop-color:#6294ca;stop-opacity:1" id="stop4741-69-3-6-3-6-9" offset="1"/></linearGradient><radialGradient id="radialGradient5631-7" cx="117.735" cy="-18.209" r="220" fx="117.735" fy="-18.209" gradientTransform="matrix(0.14298385,-8.7977378e-8,0,0.01823494,289.39313,194.64913)" gradientUnits="userSpaceOnUse" xlink:href="#linearGradient4737-9-9-2-4-9-8"/><linearGradient id="linearGradient6632-7"><stop style="stop-color:#204a87;stop-opacity:1" id="stop6634-4" offset="0"/><stop style="stop-color:#5084c8;stop-opacity:1" id="stop6636-0" offset="1"/></linearGradient><linearGradient id="linearGradient7342" x1="318.96" x2="319.86" y1="92.105" y2="54.057" gradientTransform="translate(-299.09502,-52.1)" gradientUnits="userSpaceOnUse" xlink:href="#linearGradient6632-7"/><linearGradient id="linearGradient6632-0"><stop style="stop-color:#204a87;stop-opacity:1" id="stop6634-3" offset="0"/><stop style="stop-color:#5084c8;stop-opacity:1" id="stop6636-4" offset="1"/></linearGradient><linearGradient id="linearGradient7342-4" x1="318.96" x2="319.86" y1="92.105" y2="54.057" gradientTransform="translate(-299.09502,-52.1)" gradientUnits="userSpaceOnUse" xlink:href="#linearGradient6632-0"/><linearGradient id="linearGradient6632-0-2"><stop style="stop-color:#204a87;stop-opacity:1" id="stop6634-3-6" offset="0"/><stop style="stop-color:#5084c8;stop-opacity:1" id="stop6636-4-9" offset="1"/></linearGradient><linearGradient id="linearGradient7391" x1="306.445" x2="306.445" y1="226.179" y2="210.814" gradientTransform="translate(-287.54504,-207.27865)" gradientUnits="userSpaceOnUse" xlink:href="#linearGradient6632-0-2"/></defs><metadata id="metadata4"/><g style="display:inline" id="layer1" transform="translate(-15.428319,-4.4861167)"><g id="layer5" style="display:inline"><g style="display:inline;enable-background:new" id="g3211" transform="matrix(0.5,0,0,0.5,143.80647,6.0138877)"><path transform="matrix(0.98186805,0,0,0.26182745,5.163187,394.90446)" style="display:inline;fill:url(#linearGradient3227);fill-opacity:1;stroke:none;filter:url(#filter5692);enable-background:new" id="path3255-1-8-0-4" d="m 229.00001,530 c 0,0 -175.528628,-366.71501 -224.2343478,-366.6728 -48.7057202,0.0422 -125.3637222,178.14259 -150.9245722,266.37026 -25.56083,88.22768 27.66165,37.95068 267.66713,-47.8494 -43.257258,34.33899 -332.8723,214.94732 -332.50787,120.18647 C -210.63523,407.2737 -72.888998,77.999999 4.7656622,77.999999 82.420322,77.999999 213.23453,410.98418 229.00001,530 Z"/><path transform="matrix(0.92530479,0,0,0.25103764,22.67227,407.18456)" style="display:inline;opacity:.14722224;fill:url(#linearGradient3229);fill-opacity:1;stroke:none;filter:url(#filter16317);enable-background:new" id="path3255-1-8-0" d="m 229.00001,530 c 0,0 -175.528628,-366.71501 -224.2343478,-366.6728 -48.7057202,0.0422 -125.3637222,178.14259 -150.9245722,266.37026 0,0 -55.58733,150.62858 -64.84074,72.33707 C -210.63523,407.2737 -72.888998,77.999999 4.7656622,77.999999 82.420322,77.999999 213.23453,410.98418 229.00001,530 Z"/><g id="g4112" clip-path="url(#clipPath4123)"><path style="display:inline;fill:url(#radialGradient3231);fill-opacity:1;stroke:none;enable-background:new" id="path3255" d="m 229.00001,528 c 0,0 -175.528646,-366.71501 -224.234366,-366.6728 -48.70572,0.0422 -125.363704,178.14259 -150.924554,266.37026 -25.56083,88.22768 27.66165,37.95068 267.66713,-47.8494 -43.257276,34.33899 -332.8723,214.94732 -332.50787,120.18647 C -210.63523,405.2737 -72.889016,76 4.765644,76 82.420304,76 213.23453,408.98418 229.00001,528 Z"/><path id="path4612-6" d="m 81.562496,398.5 c -5.85074,2.22444 -11.5224,4.41213 -17.09375,6.5625 -32.65667,19.90012 -88.2541,48.89051 -126.03125,67.15625 -38.546696,18.63783 -75.820136,30.10903 -101.906246,34 -13.04305,1.94548 -23.02875,0.99332 -28.53125,-1.8125 -5.07911,-2.58993 -7.65904,-5.95523 -8,-14.1875 -0.0143,0.6101 -0.0602,1.25728 -0.0625,1.84375 -0.0378,9.8296 2.56,13.53793 8.0625,16.34375 5.5025,2.80582 15.4882,3.75798 28.53125,1.8125 26.08611,-3.89097 63.35955,-15.36217 101.906246,-34 44.60294,-21.5661 107.63607,-55.47095 143.125,-77.71875 z" style="display:inline;opacity:.81388891;fill:url(#radialGradient3233);fill-opacity:1;stroke:none;filter:url(#filter5530);enable-background:new"/><path id="path4612" d="m 4.7812522,151.375 c -17.0094602,0.0147 -31.7528302,13.43469 -46.7500002,32.21875 -14.99717,18.78406 -30.09649,44.15219 -44.46875,72.21875 -28.744522,56.13311 -54.370422,122.87656 -67.343752,167.65625 -3.26945,11.28506 -5.37188,20.52225 -5.96875,28.40625 -0.1658,2.19005 -0.22403,4.31521 -0.125,6.375 0.0294,-0.78925 0.064,-1.56969 0.125,-2.375 0.59687,-7.884 2.6993,-17.12119 5.96875,-28.40625 12.97333,-44.77969 38.59923,-111.52314 67.343752,-167.65625 14.37226,-28.06656 29.47158,-53.43469 44.46875,-72.21875 14.99717,-18.78406 29.74054,-32.20401 46.7500002,-32.21875 11.0678898,-0.01 19.4039498,7.6853 29.3749998,18.25 9.97105,10.5647 20.99434,25.1132 32.78125,42.5 23.57383,34.7736 50.139438,80.76124 75.187498,126.71875 24.86785,45.62686 48.16317,91.1408 65.375,125.5 -0.77707,-2.88579 -1.60862,-5.84835 -2.4375,-8.8125 C 188.11139,425.78159 165.87251,382.41505 142.125,338.84375 117.07694,292.88624 90.511332,246.8986 66.937502,212.125 c -11.78691,-17.3868 -22.8102,-31.9353 -32.78125,-42.5 -9.97105,-10.5647 -18.30711,-18.25959 -29.3749998,-18.25 z" style="display:inline;opacity:.225;fill:url(#linearGradient3235);fill-opacity:1;stroke:none;filter:url(#filter4976);enable-background:new"/><path id="path5862" d="m 159.875,385.03125 c 32.45143,61.3346 56.7691,111.53658 63.14287,124.75 -3.4732,-19.67528 -9.49781,-43.91776 -17.42483,-70.70348 3.69345,19.08035 5.57717,30.76669 8.76397,43.23047 -9.85483,-19.85391 -34.5466,-61.81973 -54.48201,-97.27699 z" style="display:inline;opacity:.69444442;fill:url(#linearGradient3237);fill-opacity:1;stroke:none;filter:url(#filter5964);enable-background:new"/><path style="display:inline;fill:none;stroke:#102646;stroke-width:4;stroke-linejoin:round;stroke-miterlimit:4;stroke-dasharray:none;stroke-opacity:1;filter:url(#filter5716);enable-background:new" id="path3255-1" d="m 228.00001,527 c 0,0 -175.528636,-366.71501 -224.2343564,-366.6728 -48.7057196,0.0422 -125.3637136,178.14259 -150.9245636,266.37026 -25.56083,88.22768 27.66165,37.95068 267.66713,-47.8494 -43.257266,34.33899 -332.8723,214.94732 -332.50787,120.18647 C -211.63523,404.2737 -73.889006,75 3.7656536,75 81.420314,75 212.23453,407.98418 228.00001,527 Z"/><path id="path4393" d="m 4.7812534,81.937503 c -7.6045,0 -17.1692604,4.2934 -27.7812504,12.999997 -10.61199,8.7066 -22.11185,21.61235 -33.84375,37.53125 -23.46379,31.83779 -47.890153,75.68771 -69.875003,122.53125 -21.98485,46.84354 -41.56657,96.71104 -55.65625,140.625 -14.08968,43.91396 -22.60189,82.17562 -22.6875,104.4375 -0.0265,6.88012 1.3697,11.23907 4.09375,14.3125 2.73941,-107.59276 141.610796,-413.98285 209.7500034,-415.46875 6.8867996,0 15.9353696,3.98443 26.1874996,12.65625 C 138.47488,215.06863 214.21875,484.46875 214.21875,484.46875 199.24888,422.79554 169.46149,336.70178 134.6875,259.8125 112.59893,210.97213 88.559923,165.86847 65.500003,133.3125 53.970043,117.03451 42.664553,103.92939 32.218753,95.09375 21.772953,86.258117 12.362033,81.937503 4.7812534,81.937503 Z M 79.562503,401.5 c -94.02313,35.11834 -163.93494,64.26721 -199.750003,75.21875 -10.27799,3.14281 -18.58081,5.01807 -25.65625,5.1875 -7.07544,0.16943 -13.62278,-1.67461 -17.65625,-6.65625 -2.26256,-2.79444 -3.53143,-6.10231 -4.09375,-9.8125 -0.0458,0.47631 -0.0897,0.9707 -0.125,1.4375 -0.59648,7.87891 1.20826,12.02295 5.71875,17.59375 12.85298,12.39797 30.22635,4.73251 42.90625,-0.40625 C -45.384297,454.1904 79.562503,401.5 79.562503,401.5 Z" style="display:inline;opacity:.46666667;fill:#fff;stroke:none;filter:url(#filter4590);enable-background:new"/><path id="path4839" d="m 4.78125,116.5625 c -2.4362546,0 -9.3321386,2.04423 -18.5,9.14401 -9.167861,7.09978 -20.106862,18.48658 -31.375,32.91842 -22.536275,28.86369 -46.664534,69.69253 -68.375,113.3562 -21.71047,43.66366 -41.13186,90.28524 -55,131.08377 -13.86814,40.79852 -21.89664,76.72063 -21.96875,94.41925 -0.0255,6.24614 -0.38472,3.99227 1.1875,4.74899 0,0 10.59694,-32.35763 23.34375,-78.52049 45.15636,-131.1962 130.6034,-283.16762 170.65625,-283.16762 40.05285,0 107.54469,131.35527 137.5625,182.28857 -6.75275,-15.70773 -13.71002,-31.33749 -20.96875,-46.48694 C 99.501049,230.7595 75.715358,188.76514 53.5625,159.24436 42.486071,144.48399 31.768503,132.88194 22.78125,125.70651 c -8.987253,-7.17543 -15.6457484,-9.14401 -18,-9.14401 z" transform="matrix(1.0028236,0,0,0.98040755,-0.43198263,10.074543)" style="display:inline;opacity:.37777782;fill:url(#linearGradient3239);fill-opacity:1;stroke:none;filter:url(#filter6051);enable-background:new"/><path id="path5108" d="m 2.78125,87.375 c -5.68472,0 -14.26819,3.483517 -24.34375,11.75 -10.07556,8.26648 -21.34662,20.87735 -32.90625,36.5625 -23.11926,31.3703 -47.42957,74.99863 -69.3125,121.625 -21.88293,46.62637 -41.43011,96.31128 -55.4375,139.96875 -14.00739,43.65747 -22.32565,81.82367 -22.40625,102.78125 -0.0342,8.88124 1.77195,10.98048 6.125,13.21875 -1.4903,-1.94351 -2.14573,-4.82699 -2.125,-10.21875 0.0806,-20.95758 8.39886,-59.12378 22.40625,-102.78125 14.00739,-43.65747 33.55457,-93.34238 55.4375,-139.96875 21.88293,-46.62637 46.19324,-90.2547 69.3125,-121.625 11.55963,-15.68515 22.83069,-28.29602 32.90625,-36.5625 10.07556,-8.266483 18.65903,-11.75 24.34375,-11.75 4.46695,0 10.66365,2.182249 17.96875,7.25 C 15.70045,90.412779 8.04414,87.375 2.78125,87.375 Z" style="display:inline;opacity:.69166667;fill:url(#radialGradient3241);fill-opacity:1;stroke:none;filter:url(#filter5151);enable-background:new"/><path id="path5108-7" d="m 638.53125,394.03125 c -98.13939,36.40397 -160.39628,64.66061 -196.96875,75.84375 -10.24096,3.13149 -18.5077,4.95906 -25.4375,5.125 -6.9298,0.16594 -13.11971,-1.59724 -16.9375,-6.3125 -3.27808,-4.04868 -4.369,-9.29798 -4.25,-15.46875 -0.0204,0.23619 -0.0448,0.48509 -0.0625,0.71875 -0.59106,7.80724 0.19413,14.76098 4.5625,20.15625 4.36837,5.39527 11.44842,7.33109 18.75,7.15625 7.30158,-0.17484 15.69577,-2.05836 26.03125,-5.21875 108.18321,-45.73059 194.3125,-82 194.3125,-82 z" transform="translate(-552,4)" style="display:inline;opacity:.52777782;fill:url(#radialGradient3243);fill-opacity:1;stroke:none;filter:url(#filter5234);enable-background:new"/><path id="path4612-6-2" d="m 81.5625,398.5 c -5.85074,2.22444 -11.5224,4.41213 -17.09375,6.5625 -32.65667,19.90012 -88.2541,48.89051 -126.03125,67.15625 -38.5467,18.63783 -75.82014,30.10903 -101.90625,34 -13.04305,1.94548 -23.02875,0.99332 -28.53125,-1.8125 -5.07911,-2.58993 -7.65904,-5.95523 -8,-14.1875 -0.0143,0.6101 -0.0602,1.25728 -0.0625,1.84375 -0.0378,9.8296 2.56,13.53793 8.0625,16.34375 5.5025,2.80582 15.4882,3.75798 28.53125,1.8125 26.08611,-3.89097 63.35955,-15.36217 101.90625,-34 C -16.95956,454.65265 46.07357,420.7478 81.5625,398.5 Z" transform="matrix(1.1628138,-0.0384337,0.0384337,1.1628138,8.8621933,-81.757358)" style="display:inline;opacity:.1;fill:url(#radialGradient3245);fill-opacity:1;stroke:none;filter:url(#filter5498);enable-background:new"/><path id="path6002" d="m 559.78125,149.375 c -4.03648,0.004 -7.95953,0.80187 -11.8125,2.28125 2.88588,-0.82896 5.8215,-1.27866 8.8125,-1.28125 10.44543,-0.009 18.74902,7.40917 28.65625,17.90625 9.90723,10.49708 20.88623,25.04436 32.65625,42.40625 23.54005,34.72377 50.11629,80.68236 75.15625,126.625 28.80551,52.85158 52.48425,99.59566 70.03125,134.9375 -1.24762,-4.87143 -2.5872,-9.93489 -4,-15.0625 C 742.62,423.88658 721.38786,382.43478 696.25,336.3125 671.21004,290.36986 644.6338,244.41127 621.09375,209.6875 609.32373,192.32561 598.34473,177.77833 588.4375,167.28125 578.53027,156.78417 570.22668,149.36595 559.78125,149.375 Z" transform="translate(-552,4)" style="display:inline;opacity:.16666667;fill:url(#radialGradient3247);fill-opacity:1;stroke:none;filter:url(#filter6031);enable-background:new"/></g></g></g></g></svg>